<svg fill="white" id="Capa_1" data-name="Capa 1" xmlns="http://www.w3.org/2000/svg" viewBox="0 0 512 512"><path d="M319.94,322.8V254.09H284a109.57,109.57,0,0,0-6.53-15.8l25.43-25.43-48.58-48.57-25.42,25.42a111.15,111.15,0,0,0-15.8-6.52v-36H144.34v36a111.15,111.15,0,0,0-15.8,6.52l-25.42-25.42L54.54,212.86,80,238.29a109.57,109.57,0,0,0-6.53,15.8h-36V322.8h36A109.69,109.69,0,0,0,80,338.61L54.54,364l48.58,48.57,25.42-25.42a111.2,111.2,0,0,0,15.8,6.53v36h68.72v-36a111.2,111.2,0,0,0,15.8-6.53l25.42,25.42L302.86,364l-25.43-25.42A109.69,109.69,0,0,0,284,322.8ZM178.7,324.71A36.27,36.27,0,1,1,215,288.45,36.25,36.25,0,0,1,178.7,324.71Z"/><path d="M474.54,193.84V150.2H451.69a69.71,69.71,0,0,0-4.15-10L463.69,124,432.84,93.16l-16.15,16.15a70.86,70.86,0,0,0-10-4.15V82.31H363v22.85a70.74,70.74,0,0,0-10,4.15L336.83,93.16,306,124l16.14,16.15a70.82,70.82,0,0,0-4.14,10H295.13v43.64H318a71.31,71.31,0,0,0,4.14,10L306,220l30.85,30.86L353,234.73a70.74,70.74,0,0,0,10,4.15v22.85h43.64V238.88a70.86,70.86,0,0,0,10-4.15l16.15,16.15L463.69,220l-16.15-16.14a70.18,70.18,0,0,0,4.15-10Zm-89.71,1.21a23,23,0,1,1,23-23A23,23,0,0,1,384.83,195.05Z"/></svg>