<svg xmlns="http://www.w3.org/2000/svg" viewBox="0 0 281 505.53"><defs><style>.cls-1{fill:#000b1c;}.cls-2{fill:#fef100;}.cls-3{fill:#fff;}.cls-4{fill:#f69208;}.cls-5{fill:#49b8e8;}.cls-6{fill:#a8e720;}</style></defs><title>Cuadros Izq</title><g id="C-izq"><rect class="cls-1" x="78.12" y="237.59" width="57.52" height="57.52" transform="translate(213.76 532.7) rotate(180)"/><rect class="cls-2" x="0.49" y="253.22" width="57.06" height="57.06" transform="translate(58.03 563.51) rotate(180)"/><rect class="cls-2" x="186.83" y="199.35" width="38.36" height="38.36" transform="translate(412.02 437.07) rotate(180)"/><rect class="cls-3" x="74.15" y="75.57" width="42.04" height="42.04" transform="translate(190.33 193.18) rotate(180)"/><rect class="cls-3" x="46.45" y="6.38" width="23.68" height="23.68" transform="translate(116.58 36.43) rotate(180)"/><rect class="cls-1" x="235.72" y="275.12" width="22.93" height="22.93" transform="translate(494.37 573.16) rotate(180)"/><rect class="cls-1" x="123.9" y="379.35" width="36.42" height="36.42" transform="translate(284.22 795.12) rotate(180)"/><rect class="cls-3" x="175.5" y="133.85" width="35.04" height="35.04" transform="translate(386.03 302.73) rotate(180)"/><rect class="cls-1" x="24.54" y="332.25" width="56.89" height="56.89" transform="translate(105.97 721.39) rotate(180)"/><rect class="cls-4" x="14.22" y="51.4" width="43.33" height="43.33" transform="translate(71.76 146.13) rotate(180)"/><rect class="cls-5" x="93.89" y="316.11" width="44.59" height="44.59" transform="translate(232.36 676.8) rotate(180)"/><rect class="cls-6" x="109.12" y="154.3" width="49.03" height="49.03" transform="translate(267.28 357.63) rotate(180)"/><rect class="cls-6" x="183.92" y="336.47" width="31" height="31" transform="translate(398.84 703.94) rotate(180)"/><rect class="cls-6" x="186.56" y="433.41" width="18.24" height="18.24" transform="translate(391.35 885.05) rotate(180)"/><rect class="cls-4" x="123.47" y="470.07" width="30.02" height="30.02" transform="translate(276.95 970.15) rotate(180)"/><rect class="cls-2" x="49.48" y="413.56" width="46.14" height="46.14" transform="translate(145.11 873.27) rotate(180)"/><rect class="cls-1" x="153.58" y="277.98" width="43.85" height="43.85" transform="translate(351 599.8) rotate(180)"/><rect class="cls-3" x="7.09" y="140.41" width="51.2" height="51.2" transform="translate(65.38 332.01) rotate(180)"/></g></svg>