<svg fill="white" id="Capa_1" data-name="Capa 1" xmlns="http://www.w3.org/2000/svg" viewBox="0 0 512 512"><path d="M256.41,143.11h-.82S164.91,81,37.46,113.7V378.4c127.45-32.68,218.13,29.41,218.13,29.41h.82s90.68-62.09,218.13-29.41V113.7C347.09,81,256.41,143.11,256.41,143.11Zm-37.24,183c-.58-.36-68.62-39.22-140.52-22l.22-12.76c76.73-17,137.87,19.44,140.43,21Zm0-39.22c-.58-.35-68.62-39.21-140.52-22l.22-12.76c76.73-17,137.87,19.43,140.43,21Zm0-39.21c-.58-.36-68.62-39.21-140.52-22l.22-12.77c76.73-17,137.87,19.44,140.43,21Zm0-39.21c-.58-.36-68.62-39.22-140.52-22l.22-12.76c76.73-17,137.87,19.43,140.43,21Zm73.66,117.64-.13-13.76c2.56-1.55,63.7-38,140.43-21l.22,12.76C361.45,286.89,293.41,325.75,292.83,326.11Zm0-39.22-.13-13.75c2.56-1.56,63.7-38,140.43-21l.22,12.76C361.45,247.68,293.41,286.54,292.83,286.89Zm0-39.21-.13-13.75c2.56-1.56,63.7-38,140.43-21l.22,12.77C361.45,208.47,293.41,247.32,292.83,247.68Zm0-39.21-.13-13.76c2.56-1.56,63.7-38,140.43-21l.22,12.76C361.45,169.25,293.41,208.11,292.83,208.47Z"/></svg>