<svg fill='white' id="Layer_1" data-name="Layer 1" xmlns="http://www.w3.org/2000/svg" viewBox="0 0 539.44 512"><rect x="426.06" y="252.39" width="19.93" height="68.4" transform="translate(872.05 573.18) rotate(-180)"/><path d="M425.09,251.42H447v70.34H425.09ZM445,253.36H427v66.46h18Z"/><rect x="305.22" y="252.39" width="19.93" height="68.4"/><path d="M304.25,251.42h21.87v70.34H304.25Zm19.92,1.94h-18v66.46h18Z"/><polygon points="356.07 321.19 356.07 333.99 395.14 333.99 395.14 321.19 408.6 321.19 408.6 333.99 408.6 338.27 408.6 345.44 342.61 345.44 342.61 338.27 342.61 333.99 342.61 321.19 356.07 321.19"/><path d="M341.64,320.22H357V333h37.13v-12.8h15.4v26.19H341.64Zm66,1.94H396.11V335h-41v-12.8H343.58v22.31h64.05Z"/><polygon points="370.62 156.5 382.28 156.5 382.28 54.16 370.62 58.93 370.62 156.5"/><path d="M242.09,153.07v267h267v-267Zm12.55,12.85H496.57V407.84H254.64Z"/><path d="M241.11,152.1h269v269h-269Zm267,1.94H243.06v265.1H508.15ZM253.67,165H497.54V408.81H253.67Zm241.92,1.94h-240v240h240Z"/><path d="M77.48,390h90.84l25-230.28,2.26-22c1.6-15.4-8.64-29.69-23.26-32.45a26.79,26.79,0,0,0-4.93-.47c-.21,0-.44,0-.64,0-12.11.29-22.74,8.92-25.69,21.64ZM154.56,142.1a11.3,11.3,0,1,1,11.3,11.3A11.3,11.3,0,0,1,154.56,142.1Z"/><polygon points="171.63 397.73 213.91 465.94 29.35 465.94 71.63 397.73 171.63 397.73"/><path d="M395.12,48.87,201.71,154l1.6-15.56A38,38,0,0,0,184,101.23L394.39,46.1a1.77,1.77,0,0,1,.3,0,1.18,1.18,0,0,1,1,.84A1.52,1.52,0,0,1,395.12,48.87Z"/></svg>