<svg fill='white' id="Layer_1" data-name="Layer 1" xmlns="http://www.w3.org/2000/svg" viewBox="0 0 604.24 512"><rect x="28.95" y="387.58" width="151.34" height="16.14"/><rect x="423.94" y="387.58" width="151.34" height="16.14"/><rect x="224.43" y="202.13" width="70.35" height="21.87" transform="translate(-74.63 245.97) rotate(-45)"/><rect x="309.88" y="287.59" width="70.35" height="21.87" transform="translate(-110.02 331.42) rotate(-45)"/><polygon points="282.62 301.75 256.37 275.5 265.42 266.44 254.53 255.55 236.01 274.08 284.04 322.11 302.56 303.59 291.68 292.7 282.62 301.75"/><polygon points="337.9 100.21 337.9 123.46 470.44 256 337.9 388.54 337.9 411.79 493.69 256 337.9 100.21"/><polygon points="266.34 123.46 266.34 100.21 110.55 256 266.34 411.79 266.34 388.54 133.8 256 266.34 123.46"/></svg>