<svg id="Layer_1_copy" data-name="Layer 1 copy" xmlns="http://www.w3.org/2000/svg" viewBox="0 0 1545.89 355.68"><defs><style>.cls-1{fill:#000b1c;}.cls-2{fill:#fff;}.cls-3{fill:#fff200;}.cls-4{fill:none;stroke:#fff;stroke-miterlimit:10;stroke-width:5px;}</style></defs><path class="cls-1" d="M365.39,249.4c-4-2.37-14.51-8.54-21.87-12.82l-.13-.08-4.71-2.75L365.92,218l-28-16.19V103.2L222.79,36.56,108.43,102.74l-.25.14v99.23l-27.63,16,26.87,15.55-4.94,2.88-.06,0,0,0L79.83,249.78,201.12,320l.25.15,21.75-12.59L244.62,320l.13.07H245l121.1-70.19Zm-142.27,57L108.4,240l4.93-2.88h0L220.24,299V167.63l-105-60.77L222.79,44.62,330.56,107l-30.8,17.81L217.85,77.4l-7,4L260.2,110,229.74,127.6,180.43,99.06l-7,4,81.92,47.4-29.5,17.06V299l106.2-61.43h0l.73-.42,4.6,2.68Zm107.57-191.3V230.18l-97.55,56.46V171.51Z"/><polygon class="cls-1" points="302.7 200.16 302.65 215.79 271.3 233.94 271.3 218.34 278.56 214.13 278.56 221.56 295.43 211.78 295.43 204.37 302.7 200.16"/><path class="cls-2" d="M233.14,171.51V286.64l97.55-56.46V115.06Zm69.51,44.28L271.3,233.93v-15.6l7.26-4.21v7.43l16.87-9.77v-7.42l7.27-4.2Z"/><polygon class="cls-3" points="337.41 239.86 223.12 306.37 108.4 240 113.33 237.12 113.34 237.12 220.24 298.95 220.24 167.63 115.23 106.86 222.79 44.63 330.56 106.98 299.76 124.8 217.85 77.41 210.89 81.44 260.2 109.97 229.74 127.61 180.43 99.06 173.46 103.08 255.38 150.49 225.88 167.54 225.88 299.02 332.08 237.59 332.08 237.6 332.81 237.18 337.41 239.86"/><polygon class="cls-1" points="264.09 184.94 264.09 219.47 254.1 225.25 254.1 190.72 264.09 184.94"/><polygon class="cls-1" points="316.51 155.34 316.51 189.87 306.52 195.65 306.52 161.12 316.51 155.34"/><path class="cls-4" d="M366.12,249.84,245,320h-.27l-.13-.07-21.5-12.44-21.75,12.59-.25-.15L79.83,249.78l22.56-13.18h0l.06-.05,4.94-2.88L80.55,218.11l27.63-16V102.89l.25-.15L222.79,36.57,338,103.21v98.58l28,16.19-27.24,15.78,4.71,2.75.13.08c7.36,4.27,17.9,10.44,21.87,12.81Z"/><path class="cls-2" d="M403.31,135h70V157.7H426.7v13.1h38.35V192H426.7v11.7h46.65v22.56h-70Z"/><path class="cls-2" d="M487,135h42.33a45.62,45.62,0,0,1,18.77,3.62,37.91,37.91,0,0,1,13.51,9.88,42.69,42.69,0,0,1,8.12,14.56,57.69,57.69,0,0,1,0,35.2,42,42,0,0,1-8.12,14.5,38.26,38.26,0,0,1-13.51,9.82,45.62,45.62,0,0,1-18.77,3.62H487Zm23.39,22.68v46h17.19a23.4,23.4,0,0,0,9.24-1.7,18.31,18.31,0,0,0,6.66-4.74,19.82,19.82,0,0,0,4-7.25,30.78,30.78,0,0,0,1.34-9.35q0-10.29-5.38-16.6t-15.9-6.32Z"/><path class="cls-2" d="M667.58,135v51.33a47.83,47.83,0,0,1-2.75,16.37,36.61,36.61,0,0,1-21.22,22,52.28,52.28,0,0,1-36.13,0,36.64,36.64,0,0,1-13.1-8.83,37.09,37.09,0,0,1-8-13.21,48.55,48.55,0,0,1-2.69-16.37V135h23.38V185q0,9.93,4.68,15.2t13.8,5.26q9.24,0,14-5.26t4.74-15.2V135Z"/><path class="cls-2" d="M770,201.79a48.59,48.59,0,0,1-7.48,10.64,47.63,47.63,0,0,1-10.06,8.24,50.22,50.22,0,0,1-12.16,5.38,48.47,48.47,0,0,1-32.21-1.81,49.8,49.8,0,0,1-15.44-10.18,48.35,48.35,0,0,1-10.46-15,45.88,45.88,0,0,1,0-36.84,48.35,48.35,0,0,1,10.46-15A49.8,49.8,0,0,1,708.1,137a48.29,48.29,0,0,1,32.15-1.81,52.21,52.21,0,0,1,12.11,5.32,46.1,46.1,0,0,1,10,8.19,49.36,49.36,0,0,1,7.49,10.52l-21.29,9.59a23.72,23.72,0,0,0-8.82-9.41,25.38,25.38,0,0,0-22.69-1.64,25.53,25.53,0,0,0-7.89,5.26,24,24,0,0,0-5.32,7.89,25.39,25.39,0,0,0,0,19.42,24,24,0,0,0,5.32,7.89,25.53,25.53,0,0,0,7.89,5.26,25.49,25.49,0,0,0,22.74-1.64,23.81,23.81,0,0,0,8.77-9.41Z"/><path class="cls-2" d="M829.42,135l36.83,91.2H840.76l-5-13.33h-35.9l-5,13.33H769.31l37-91.2ZM817.84,165l-10.06,26.78h20Z"/><path class="cls-2" d="M856,135h80.22V157.7H907.76v68.52H884.37V157.7H856Z"/><path class="cls-2" d="M991.49,135a39.93,39.93,0,0,1,15.2,2.63,28.5,28.5,0,0,1,16.89,17.83,39.87,39.87,0,0,1,2.05,12.86,39.43,39.43,0,0,1-1.11,9.36,33,33,0,0,1-3.33,8.48,30.78,30.78,0,0,1-5.62,7.13,29.5,29.5,0,0,1-8,5.32l19.76,27.59H999.44l-17.31-24.43H970.2v24.43H946.93V135ZM970.2,156.3v24.32h20a15.91,15.91,0,0,0,6-1,10.94,10.94,0,0,0,4-2.63,10.17,10.17,0,0,0,2.22-3.86,15,15,0,0,0,.7-4.56,13.21,13.21,0,0,0-2.92-8.77q-2.92-3.51-9.94-3.51Z"/><path class="cls-2" d="M1034.52,180.62a44.49,44.49,0,0,1,3.85-18.42,48.38,48.38,0,0,1,10.47-15A49.69,49.69,0,0,1,1064.28,137a48.64,48.64,0,0,1,37.41,0,49.8,49.8,0,0,1,15.44,10.18,47.72,47.72,0,0,1,10.41,15,46.54,46.54,0,0,1,0,36.84,47.72,47.72,0,0,1-10.41,15,49.8,49.8,0,0,1-15.44,10.18,48.64,48.64,0,0,1-37.41,0,49.69,49.69,0,0,1-15.44-10.18,48.38,48.38,0,0,1-10.47-15A44.49,44.49,0,0,1,1034.52,180.62Zm23.62,0a24.61,24.61,0,0,0,1.93,9.71,23.83,23.83,0,0,0,5.32,7.89,25.53,25.53,0,0,0,7.89,5.26,24.14,24.14,0,0,0,9.65,1.93,24.46,24.46,0,0,0,9.76-1.93,25,25,0,0,0,7.84-5.26,25.07,25.07,0,0,0,0-35.2,25,25,0,0,0-7.84-5.26,24.46,24.46,0,0,0-9.76-1.93,24.14,24.14,0,0,0-9.65,1.93,25.53,25.53,0,0,0-7.89,5.26,23.83,23.83,0,0,0-5.32,7.89A24.64,24.64,0,0,0,1058.14,180.62Zm4.09-63.61,30.4-21.64L1104,115l-33.91,15.55Z"/><path class="cls-2" d="M1143.38,226.22V135h19.88L1204,186V135h23.27v91.2h-19.76l-40.69-50.86v50.86Z"/><path class="cls-2" d="M1267,135v91.2h-23.39V135Z"/><path class="cls-2" d="M1370.7,201.79a48.63,48.63,0,0,1-7.49,10.64,47.82,47.82,0,0,1-10,8.24,50.4,50.4,0,0,1-12.16,5.38,48.5,48.5,0,0,1-32.22-1.81,49.64,49.64,0,0,1-15.43-10.18,48.22,48.22,0,0,1-10.47-15,45.88,45.88,0,0,1,0-36.84,48.22,48.22,0,0,1,10.47-15A49.64,49.64,0,0,1,1308.78,137a48.32,48.32,0,0,1,32.16-1.81,52.14,52.14,0,0,1,12.1,5.32,46.39,46.39,0,0,1,10.06,8.19,49.67,49.67,0,0,1,7.48,10.52l-21.28,9.59a23.82,23.82,0,0,0-8.83-9.41,25.38,25.38,0,0,0-22.69-1.64,25.53,25.53,0,0,0-7.89,5.26,24.14,24.14,0,0,0-5.32,7.89,25.39,25.39,0,0,0,0,19.42,24.14,24.14,0,0,0,5.32,7.89,25.53,25.53,0,0,0,7.89,5.26,25.51,25.51,0,0,0,22.75-1.64,23.88,23.88,0,0,0,8.77-9.41Z"/><path class="cls-2" d="M1430.22,135l36.83,91.2h-25.49l-5-13.33h-35.9l-5,13.33h-25.5l37-91.2ZM1418.64,165l-10.05,26.78h20Z"/></svg>