<svg fill='white' id="Layer_1" data-name="Layer 1" xmlns="http://www.w3.org/2000/svg" viewBox="0 0 512 512"><path d="M73.22,271.09a15.13,15.13,0,0,0,13.92-9.27H120V250.17H136V201.41H120v48.76H87.14a15.09,15.09,0,1,0-13.92,20.92Zm0-18.53A3.44,3.44,0,1,1,69.78,256,3.44,3.44,0,0,1,73.22,252.56Z"/><path d="M36.51,183.49a15.12,15.12,0,0,0,13.92-9.27H64.77L92,201.41h28V189.75H136V136h53.54V120H120v69.8H96.78L69.6,162.57H50.43a15.09,15.09,0,1,0-13.92,20.92Zm0-18.53a3.44,3.44,0,1,1-3.44,3.43A3.44,3.44,0,0,1,36.51,165Z"/><path d="M250,70.35V120H201.2v16H250V120h11.65V70.36a15.1,15.1,0,1,0-11.66,0ZM255.79,53a3.44,3.44,0,1,1-3.44,3.44A3.44,3.44,0,0,1,255.79,53Z"/><path d="M162.36,50.43V69.6l27.19,27.18V120H201.2V92L174,64.77V50.43a15.09,15.09,0,1,0-11.66,0Zm5.83-17.36a3.44,3.44,0,1,1-3.44,3.44A3.44,3.44,0,0,1,168.19,33.07Z"/><path d="M261.62,136H310.8V120h11.65V96.78L349.64,69.6V50.43a15.09,15.09,0,1,0-11.66,0V64.77L310.8,92v28H261.62ZM343.81,33.07a3.44,3.44,0,1,1-3.44,3.44A3.44,3.44,0,0,1,343.81,33.07Z"/><path d="M475.49,153.3a15.12,15.12,0,0,0-13.92,9.27H442.4l-27.18,27.18H392.05V120h-69.6v16H376v53.75h16.06v11.66h28l27.19-27.19h14.34a15.09,15.09,0,1,0,13.92-20.92Zm0,18.53a3.44,3.44,0,1,1,3.44-3.44A3.44,3.44,0,0,1,475.49,171.83Z"/><rect x="184.64" y="220.53" width="21.87" height="70.35"/><rect x="305.49" y="220.53" width="21.87" height="70.35"/><polygon points="274.56 302.13 237.44 302.13 237.44 289.33 222.04 289.33 222.04 315.52 289.96 315.52 289.96 289.33 274.56 289.33 274.56 302.13"/><path d="M475.49,328.93a15.11,15.11,0,0,0-13.92,9.26H447.23L420,311h-28V261.83H376V311h16.06v11.65h23.17l27.18,27.18h19.17a15.09,15.09,0,1,0,13.92-20.91Zm0,18.52a3.44,3.44,0,1,1,3.44-3.43A3.44,3.44,0,0,1,475.49,347.45Z"/><path d="M455.56,240.9a15.1,15.1,0,0,0-13.91,9.27h-49.6V201.41H376v48.76h16.06v11.65h49.59a15.09,15.09,0,1,0,13.92-20.92Zm0,18.53A3.44,3.44,0,1,1,459,256,3.44,3.44,0,0,1,455.56,259.43Z"/><path d="M392.05,392V322.66H376V376H322.45V392H310.8V376H261.62V392H250V376H201.2V392H189.55V376H136V322.66H120V392h69.6v23.18L162.36,442.4v19.17a15.09,15.09,0,1,0,11.66,0V447.23L201.2,420V392H250v32.82a15.09,15.09,0,1,0,11.66,0V392H310.8v28L338,447.23v14.34a15.09,15.09,0,1,0,11.66,0V442.4l-27.19-27.18V392ZM168.19,478.93a3.44,3.44,0,1,1,3.44-3.44A3.44,3.44,0,0,1,168.19,478.93Zm87.6-36.71a3.44,3.44,0,1,1,3.44-3.44A3.44,3.44,0,0,1,255.79,442.22Zm88,29.83a3.44,3.44,0,1,1-3.44,3.44A3.44,3.44,0,0,1,343.81,472.05Z"/><path d="M120,311H136V261.83H120V311H92L64.77,338.19H50.43a15.1,15.1,0,1,0,0,11.65H69.6l27.18-27.18H120ZM36.51,347.45A3.44,3.44,0,1,1,40,344,3.44,3.44,0,0,1,36.51,347.45Z"/></svg>